<mxfile host="app.diagrams.net" modified="2020-07-07T01:52:25.669Z" agent="5.0 (Windows NT 6.1; WOW64) AppleWebKit/537.36 (KHTML, like Gecko) Chrome/72.0.3626.81 Safari/537.36 SE 2.X MetaSr 1.0" etag="OR4-b9OFfFMlqu5SiYKc" version="13.3.9" type="github">
  <diagram id="X-_uqeIbl1GHuLs3GYBl" name="第 1 页">
    <mxGraphModel dx="795" dy="443" grid="1" gridSize="10" guides="1" tooltips="1" connect="1" arrows="1" fold="1" page="1" pageScale="1" pageWidth="250" pageHeight="280" math="0" shadow="0">
      <root>
        <mxCell id="0" />
        <mxCell id="1" parent="0" />
        <mxCell id="XVLoJR0zLxYacdBKWkdC-13" value="" style="rounded=0;whiteSpace=wrap;html=1;fillColor=#f8cecc;strokeColor=#b85450;" parent="1" vertex="1">
          <mxGeometry x="7" y="77" width="228" height="50" as="geometry" />
        </mxCell>
        <mxCell id="XVLoJR0zLxYacdBKWkdC-14" value="" style="endArrow=none;html=1;" parent="1" edge="1">
          <mxGeometry width="50" height="50" relative="1" as="geometry">
            <mxPoint x="63" y="127" as="sourcePoint" />
            <mxPoint x="63" y="77" as="targetPoint" />
          </mxGeometry>
        </mxCell>
        <mxCell id="XVLoJR0zLxYacdBKWkdC-15" value="" style="endArrow=none;html=1;" parent="1" edge="1">
          <mxGeometry width="50" height="50" relative="1" as="geometry">
            <mxPoint x="107" y="127" as="sourcePoint" />
            <mxPoint x="107" y="77" as="targetPoint" />
          </mxGeometry>
        </mxCell>
        <mxCell id="XVLoJR0zLxYacdBKWkdC-16" value="&lt;font style=&quot;font-size: 13px;&quot;&gt;Input&lt;br style=&quot;font-size: 13px;&quot;&gt;&lt;/font&gt;" style="text;html=1;strokeColor=none;fillColor=none;align=center;verticalAlign=middle;whiteSpace=wrap;rounded=0;fontSize=13;strokeWidth=3;fontStyle=0" parent="1" vertex="1">
          <mxGeometry x="74" y="83.25" width="20" height="10" as="geometry" />
        </mxCell>
        <mxCell id="XVLoJR0zLxYacdBKWkdC-17" value="LSTM Layers" style="text;html=1;strokeColor=none;fillColor=none;align=center;verticalAlign=middle;whiteSpace=wrap;rounded=0;fontSize=12;labelBackgroundColor=none;strokeWidth=3;fontStyle=1" parent="1" vertex="1">
          <mxGeometry x="19" y="72" width="30" height="57" as="geometry" />
        </mxCell>
        <mxCell id="XVLoJR0zLxYacdBKWkdC-18" value="&lt;font style=&quot;font-size: 13px;&quot;&gt;Output&lt;br style=&quot;font-size: 13px;&quot;&gt;&lt;/font&gt;" style="text;html=1;strokeColor=none;fillColor=none;align=center;verticalAlign=middle;whiteSpace=wrap;rounded=0;fontSize=13;strokeWidth=3;fontStyle=0" parent="1" vertex="1">
          <mxGeometry x="74" y="108.75" width="20" height="10" as="geometry" />
        </mxCell>
        <mxCell id="XVLoJR0zLxYacdBKWkdC-19" value="" style="line;strokeWidth=1;html=1;labelBackgroundColor=#ffffff;fontSize=4;" parent="1" vertex="1">
          <mxGeometry x="63" y="96" width="172" height="10" as="geometry" />
        </mxCell>
        <mxCell id="XVLoJR0zLxYacdBKWkdC-20" value="(batch size, len:768)" style="text;html=1;strokeColor=none;fillColor=none;align=center;verticalAlign=middle;whiteSpace=wrap;rounded=0;labelBackgroundColor=none;fontSize=12;strokeWidth=3;fontStyle=0" parent="1" vertex="1">
          <mxGeometry x="108" y="80" width="121" height="17" as="geometry" />
        </mxCell>
        <mxCell id="XVLoJR0zLxYacdBKWkdC-21" value="(batch size, len:128)" style="text;html=1;strokeColor=none;fillColor=none;align=center;verticalAlign=middle;whiteSpace=wrap;rounded=0;labelBackgroundColor=none;fontSize=12;strokeWidth=3;fontStyle=0;labelBorderColor=none;" parent="1" vertex="1">
          <mxGeometry x="107.25" y="103" width="121.5" height="20" as="geometry" />
        </mxCell>
        <mxCell id="XVLoJR0zLxYacdBKWkdC-50" value="" style="endArrow=classic;html=1;fontSize=13;exitX=0.5;exitY=1;exitDx=0;exitDy=0;" parent="1" edge="1">
          <mxGeometry width="50" height="50" relative="1" as="geometry">
            <mxPoint x="122" y="59" as="sourcePoint" />
            <mxPoint x="122" y="77" as="targetPoint" />
          </mxGeometry>
        </mxCell>
        <mxCell id="XVLoJR0zLxYacdBKWkdC-51" value="" style="endArrow=classic;html=1;fontSize=13;exitX=0.524;exitY=1.005;exitDx=0;exitDy=0;exitPerimeter=0;" parent="1" edge="1">
          <mxGeometry width="50" height="50" relative="1" as="geometry">
            <mxPoint x="122.14399999999989" y="127.00000000000003" as="sourcePoint" />
            <mxPoint x="122" y="147.65" as="targetPoint" />
          </mxGeometry>
        </mxCell>
        <mxCell id="XVLoJR0zLxYacdBKWkdC-52" value="" style="endArrow=classic;html=1;fontSize=13;exitX=0.5;exitY=1;exitDx=0;exitDy=0;" parent="1" edge="1">
          <mxGeometry width="50" height="50" relative="1" as="geometry">
            <mxPoint x="122" y="198" as="sourcePoint" />
            <mxPoint x="122" y="219" as="targetPoint" />
          </mxGeometry>
        </mxCell>
        <mxCell id="MComuTEHDrIpXEhBZGNQ-1" value="" style="rounded=0;whiteSpace=wrap;html=1;fillColor=#f8cecc;strokeColor=#b85450;" vertex="1" parent="1">
          <mxGeometry x="7" y="9" width="228" height="50" as="geometry" />
        </mxCell>
        <mxCell id="MComuTEHDrIpXEhBZGNQ-2" value="" style="endArrow=none;html=1;" edge="1" parent="1">
          <mxGeometry width="50" height="50" relative="1" as="geometry">
            <mxPoint x="63" y="59" as="sourcePoint" />
            <mxPoint x="63" y="9" as="targetPoint" />
          </mxGeometry>
        </mxCell>
        <mxCell id="MComuTEHDrIpXEhBZGNQ-3" value="" style="endArrow=none;html=1;" edge="1" parent="1">
          <mxGeometry width="50" height="50" relative="1" as="geometry">
            <mxPoint x="107" y="59" as="sourcePoint" />
            <mxPoint x="107" y="9" as="targetPoint" />
          </mxGeometry>
        </mxCell>
        <mxCell id="MComuTEHDrIpXEhBZGNQ-4" value="&lt;font style=&quot;font-size: 13px;&quot;&gt;Input&lt;br style=&quot;font-size: 13px;&quot;&gt;&lt;/font&gt;" style="text;html=1;strokeColor=none;fillColor=none;align=center;verticalAlign=middle;whiteSpace=wrap;rounded=0;fontSize=13;strokeWidth=3;fontStyle=0" vertex="1" parent="1">
          <mxGeometry x="74" y="15.25" width="20" height="10" as="geometry" />
        </mxCell>
        <mxCell id="MComuTEHDrIpXEhBZGNQ-5" value="Bert&lt;br&gt;Layer" style="text;html=1;strokeColor=none;fillColor=none;align=center;verticalAlign=middle;whiteSpace=wrap;rounded=0;fontSize=12;labelBackgroundColor=none;strokeWidth=3;fontStyle=1" vertex="1" parent="1">
          <mxGeometry x="19" y="4" width="30" height="57" as="geometry" />
        </mxCell>
        <mxCell id="MComuTEHDrIpXEhBZGNQ-6" value="&lt;font style=&quot;font-size: 13px;&quot;&gt;Output&lt;br style=&quot;font-size: 13px;&quot;&gt;&lt;/font&gt;" style="text;html=1;strokeColor=none;fillColor=none;align=center;verticalAlign=middle;whiteSpace=wrap;rounded=0;fontSize=13;strokeWidth=3;fontStyle=0" vertex="1" parent="1">
          <mxGeometry x="74" y="40.75" width="20" height="10" as="geometry" />
        </mxCell>
        <mxCell id="MComuTEHDrIpXEhBZGNQ-7" value="" style="line;strokeWidth=1;html=1;labelBackgroundColor=#ffffff;fontSize=4;" vertex="1" parent="1">
          <mxGeometry x="63" y="28" width="172" height="10" as="geometry" />
        </mxCell>
        <mxCell id="MComuTEHDrIpXEhBZGNQ-8" value="(batch size, len:768)" style="text;html=1;strokeColor=none;fillColor=none;align=center;verticalAlign=middle;whiteSpace=wrap;rounded=0;labelBackgroundColor=none;fontSize=12;strokeWidth=3;fontStyle=0" vertex="1" parent="1">
          <mxGeometry x="108" y="12" width="121" height="17" as="geometry" />
        </mxCell>
        <mxCell id="MComuTEHDrIpXEhBZGNQ-9" value="(batch size, len:768)" style="text;html=1;strokeColor=none;fillColor=none;align=center;verticalAlign=middle;whiteSpace=wrap;rounded=0;labelBackgroundColor=none;fontSize=12;strokeWidth=3;fontStyle=0;labelBorderColor=none;" vertex="1" parent="1">
          <mxGeometry x="107.25" y="35" width="121.5" height="20" as="geometry" />
        </mxCell>
        <mxCell id="MComuTEHDrIpXEhBZGNQ-10" value="" style="rounded=0;whiteSpace=wrap;html=1;fillColor=#f8cecc;strokeColor=#b85450;" vertex="1" parent="1">
          <mxGeometry x="4" y="148" width="235" height="50" as="geometry" />
        </mxCell>
        <mxCell id="MComuTEHDrIpXEhBZGNQ-11" value="" style="endArrow=none;html=1;" edge="1" parent="1">
          <mxGeometry width="50" height="50" relative="1" as="geometry">
            <mxPoint x="60" y="198" as="sourcePoint" />
            <mxPoint x="60" y="148" as="targetPoint" />
          </mxGeometry>
        </mxCell>
        <mxCell id="MComuTEHDrIpXEhBZGNQ-12" value="" style="endArrow=none;html=1;" edge="1" parent="1">
          <mxGeometry width="50" height="50" relative="1" as="geometry">
            <mxPoint x="104" y="198" as="sourcePoint" />
            <mxPoint x="104" y="148" as="targetPoint" />
          </mxGeometry>
        </mxCell>
        <mxCell id="MComuTEHDrIpXEhBZGNQ-13" value="&lt;font style=&quot;font-size: 13px;&quot;&gt;Input&lt;br style=&quot;font-size: 13px;&quot;&gt;&lt;/font&gt;" style="text;html=1;strokeColor=none;fillColor=none;align=center;verticalAlign=middle;whiteSpace=wrap;rounded=0;fontSize=13;strokeWidth=3;fontStyle=0" vertex="1" parent="1">
          <mxGeometry x="71" y="154.25" width="20" height="10" as="geometry" />
        </mxCell>
        <mxCell id="MComuTEHDrIpXEhBZGNQ-14" value="Softmax&lt;br&gt;Layer" style="text;html=1;strokeColor=none;fillColor=none;align=center;verticalAlign=middle;whiteSpace=wrap;rounded=0;fontSize=12;labelBackgroundColor=none;strokeWidth=3;fontStyle=1" vertex="1" parent="1">
          <mxGeometry x="16" y="143" width="30" height="57" as="geometry" />
        </mxCell>
        <mxCell id="MComuTEHDrIpXEhBZGNQ-15" value="&lt;font style=&quot;font-size: 13px;&quot;&gt;Output&lt;br style=&quot;font-size: 13px;&quot;&gt;&lt;/font&gt;" style="text;html=1;strokeColor=none;fillColor=none;align=center;verticalAlign=middle;whiteSpace=wrap;rounded=0;fontSize=13;strokeWidth=3;fontStyle=0" vertex="1" parent="1">
          <mxGeometry x="71" y="179.75" width="20" height="10" as="geometry" />
        </mxCell>
        <mxCell id="MComuTEHDrIpXEhBZGNQ-16" value="" style="line;strokeWidth=1;html=1;labelBackgroundColor=#ffffff;fontSize=4;" vertex="1" parent="1">
          <mxGeometry x="60" y="167" width="179" height="10" as="geometry" />
        </mxCell>
        <mxCell id="MComuTEHDrIpXEhBZGNQ-17" value="(batch size, len:128)" style="text;html=1;strokeColor=none;fillColor=none;align=center;verticalAlign=middle;whiteSpace=wrap;rounded=0;labelBackgroundColor=none;fontSize=12;strokeWidth=3;fontStyle=0" vertex="1" parent="1">
          <mxGeometry x="109" y="151" width="121" height="17" as="geometry" />
        </mxCell>
        <mxCell id="MComuTEHDrIpXEhBZGNQ-18" value="(batch size, len:tag num)" style="text;html=1;strokeColor=none;fillColor=none;align=center;verticalAlign=middle;whiteSpace=wrap;rounded=0;labelBackgroundColor=none;fontSize=11;strokeWidth=2;fontStyle=0;labelBorderColor=none;" vertex="1" parent="1">
          <mxGeometry x="103.25" y="174" width="136.75" height="20" as="geometry" />
        </mxCell>
        <mxCell id="MComuTEHDrIpXEhBZGNQ-19" value="" style="rounded=0;whiteSpace=wrap;html=1;fillColor=#f8cecc;strokeColor=#b85450;" vertex="1" parent="1">
          <mxGeometry x="4" y="219" width="235" height="50" as="geometry" />
        </mxCell>
        <mxCell id="MComuTEHDrIpXEhBZGNQ-20" value="" style="endArrow=none;html=1;" edge="1" parent="1">
          <mxGeometry width="50" height="50" relative="1" as="geometry">
            <mxPoint x="60" y="269" as="sourcePoint" />
            <mxPoint x="60" y="219" as="targetPoint" />
          </mxGeometry>
        </mxCell>
        <mxCell id="MComuTEHDrIpXEhBZGNQ-21" value="" style="endArrow=none;html=1;" edge="1" parent="1">
          <mxGeometry width="50" height="50" relative="1" as="geometry">
            <mxPoint x="104" y="269" as="sourcePoint" />
            <mxPoint x="104" y="219" as="targetPoint" />
          </mxGeometry>
        </mxCell>
        <mxCell id="MComuTEHDrIpXEhBZGNQ-22" value="&lt;font style=&quot;font-size: 13px;&quot;&gt;Input&lt;br style=&quot;font-size: 13px;&quot;&gt;&lt;/font&gt;" style="text;html=1;strokeColor=none;fillColor=none;align=center;verticalAlign=middle;whiteSpace=wrap;rounded=0;fontSize=13;strokeWidth=3;fontStyle=0" vertex="1" parent="1">
          <mxGeometry x="71" y="225.25" width="20" height="10" as="geometry" />
        </mxCell>
        <mxCell id="MComuTEHDrIpXEhBZGNQ-23" value="CRF&lt;br&gt;Layer" style="text;html=1;strokeColor=none;fillColor=none;align=center;verticalAlign=middle;whiteSpace=wrap;rounded=0;fontSize=12;labelBackgroundColor=none;strokeWidth=3;fontStyle=1" vertex="1" parent="1">
          <mxGeometry x="16" y="214" width="30" height="57" as="geometry" />
        </mxCell>
        <mxCell id="MComuTEHDrIpXEhBZGNQ-24" value="&lt;font style=&quot;font-size: 13px;&quot;&gt;Output&lt;br style=&quot;font-size: 13px;&quot;&gt;&lt;/font&gt;" style="text;html=1;strokeColor=none;fillColor=none;align=center;verticalAlign=middle;whiteSpace=wrap;rounded=0;fontSize=13;strokeWidth=3;fontStyle=0" vertex="1" parent="1">
          <mxGeometry x="71" y="250.75" width="20" height="10" as="geometry" />
        </mxCell>
        <mxCell id="MComuTEHDrIpXEhBZGNQ-25" value="" style="line;strokeWidth=1;html=1;labelBackgroundColor=#ffffff;fontSize=4;" vertex="1" parent="1">
          <mxGeometry x="60" y="238" width="179" height="10" as="geometry" />
        </mxCell>
        <mxCell id="MComuTEHDrIpXEhBZGNQ-26" value="(batch size, len:tag num)" style="text;html=1;strokeColor=none;fillColor=none;align=center;verticalAlign=middle;whiteSpace=wrap;rounded=0;labelBackgroundColor=none;fontSize=12;strokeWidth=3;fontStyle=0" vertex="1" parent="1">
          <mxGeometry x="100.12" y="221.75" width="143" height="17" as="geometry" />
        </mxCell>
        <mxCell id="MComuTEHDrIpXEhBZGNQ-27" value="(batch size, len:tag num)" style="text;html=1;strokeColor=none;fillColor=none;align=center;verticalAlign=middle;whiteSpace=wrap;rounded=0;labelBackgroundColor=none;fontSize=11;strokeWidth=2;fontStyle=0;labelBorderColor=none;" vertex="1" parent="1">
          <mxGeometry x="103.25" y="245" width="136.75" height="20" as="geometry" />
        </mxCell>
      </root>
    </mxGraphModel>
  </diagram>
</mxfile>
